<svg width="1440" height="197" viewBox="0 0 1440 197" fill="none" xmlns="http://www.w3.org/2000/svg">
<path d="M1444.15 119.312C1445.23 119.312 1446.1 119.568 1446.74 120.08C1447.44 120.528 1447.79 121.296 1447.79 122.384V127.856C1447.79 128.432 1447.5 128.88 1446.93 129.2C1446.42 129.52 1445.84 129.712 1445.2 129.776L1444.05 129.872C1443.02 129.936 1442.45 129.584 1442.32 128.816C1441.3 129.264 1440.43 129.616 1439.73 129.872C1439.03 130.064 1438.22 130.16 1437.33 130.16C1435.47 130.16 1433.81 129.616 1432.34 128.528C1430.93 127.44 1430.13 125.936 1429.94 124.016C1427.57 128.112 1424.78 130.16 1421.58 130.16C1419.54 130.16 1417.84 129.392 1416.5 127.856C1414.45 129.136 1412.18 129.776 1409.68 129.776C1407.38 129.776 1406.22 129.136 1406.22 127.856C1406.22 126.896 1407.22 126.384 1409.2 126.32C1410.23 126.256 1411.12 125.936 1411.89 125.36C1412.66 124.784 1413.04 123.952 1413.04 122.864C1413.04 121.2 1412.5 119.984 1411.41 119.216C1410.32 118.448 1409.1 117.904 1407.76 117.584C1406.93 117.392 1406.1 117.296 1405.27 117.296C1404.43 117.232 1403.76 117.072 1403.25 116.816C1402.61 116.624 1402.29 116.144 1402.29 115.376C1402.29 114.608 1402.77 114.16 1403.73 114.032C1404.69 113.904 1405.74 113.84 1406.9 113.84C1407.98 113.84 1408.98 113.872 1409.87 113.936C1410.77 114 1411.63 114.192 1412.46 114.512C1414.32 115.152 1415.79 116.016 1416.88 117.104C1417.97 118.128 1418.61 119.28 1418.8 120.56C1419.12 122.352 1419.7 123.696 1420.53 124.592C1421.36 125.488 1422.29 125.936 1423.31 125.936C1424.21 125.936 1425.01 125.52 1425.71 124.688C1426.42 123.856 1426.87 122.928 1427.06 121.904C1427.38 120.56 1427.76 119.536 1428.21 118.832C1428.66 118.128 1429.2 117.616 1429.84 117.296H1435.51C1434.29 119.408 1433.68 121.392 1433.68 123.248C1433.68 124.4 1434.07 125.392 1434.83 126.224C1435.67 127.056 1436.72 127.472 1438 127.472C1439.34 127.472 1440.66 127.056 1441.94 126.224V122.192C1441.94 120.72 1442.32 119.76 1443.09 119.312H1444.15Z" fill="white"/>
<path d="M1338.65 142.832C1339.23 140.592 1339.61 138.896 1339.8 137.744C1340.06 136.592 1340.19 135.504 1340.19 134.48C1340.25 133.456 1340.28 132.08 1340.28 130.352C1340.28 127.088 1339.67 124.624 1338.46 122.96C1337.24 121.296 1335.55 120.464 1333.37 120.464C1331.19 120.464 1329.27 121.072 1327.61 122.288C1326.01 123.44 1324.57 124.656 1323.29 125.936L1321.95 124.784C1325.79 117.744 1330.17 114.224 1335.1 114.224C1338.94 114.224 1341.91 115.6 1344.03 118.352C1346.2 121.04 1347.29 125.008 1347.29 130.256V131.312H1347.67C1351.45 127.024 1354.71 123.376 1357.47 120.368C1360.28 117.296 1362.75 114.672 1364.86 112.496C1366.97 110.32 1368.92 108.4 1370.71 106.736C1372.51 105.072 1374.27 103.536 1375.99 102.128C1377.79 100.72 1379.74 99.2162 1381.85 97.6162L1382.43 98.4802C1376.79 104.24 1370.55 110.864 1363.71 118.352C1356.86 125.776 1349.37 134.128 1341.24 143.408L1338.65 142.832ZM1305.82 102.224L1305.72 101.552C1305.66 101.296 1305.63 101.104 1305.63 100.976C1305.63 100.848 1305.63 100.752 1305.63 100.688C1305.63 99.9842 1305.85 99.3762 1306.3 98.8642C1306.81 98.2882 1307.35 98.0002 1307.93 98.0002C1308.7 98.0002 1309.72 98.5442 1311 99.6322C1312.28 100.656 1313.43 101.968 1314.46 103.568C1315.55 105.168 1316.09 106.8 1316.09 108.464C1319.29 102.192 1321.82 99.0562 1323.67 99.0562C1324.76 99.0562 1325.31 99.3442 1325.31 99.9202C1325.31 100.304 1324.89 100.88 1324.06 101.648C1323.8 101.904 1323.29 102.512 1322.52 103.472C1321.82 104.432 1321.18 105.52 1320.6 106.736C1319.9 108.144 1319.1 109.456 1318.2 110.672C1317.37 111.824 1316.6 112.4 1315.9 112.4C1314.94 112.4 1314.36 111.888 1314.17 110.864C1313.21 106.448 1310.43 103.568 1305.82 102.224ZM1307.16 132.464C1304.67 131.184 1302.2 129.776 1299.77 128.24C1297.34 126.704 1295.1 125.168 1293.05 123.632C1291 122.096 1289.34 120.688 1288.06 119.408C1286.84 118.192 1286.23 117.072 1286.23 116.048C1286.23 114.576 1287.29 113.84 1289.4 113.84C1290.87 113.84 1292.25 114.288 1293.53 115.184L1295.16 118.736C1295.35 119.184 1296.09 119.984 1297.37 121.136C1298.65 122.288 1300.12 123.536 1301.79 124.88C1303.45 126.224 1304.99 127.408 1306.39 128.432L1307.16 132.464ZM1319.35 132.464C1316.99 131.184 1314.55 129.776 1312.06 128.24C1309.63 126.704 1307.39 125.168 1305.34 123.632C1303.29 122.096 1301.63 120.688 1300.35 119.408C1299.13 118.064 1298.52 116.976 1298.52 116.144C1298.52 114.608 1299.61 113.84 1301.79 113.84C1303.13 113.84 1304.54 114.288 1306.01 115.184L1307.45 118.832C1307.58 119.152 1308.28 119.888 1309.56 121.04C1310.84 122.192 1312.35 123.472 1314.07 124.88C1315.8 126.224 1317.4 127.408 1318.87 128.432L1319.35 132.464Z" fill="white"/>
<path d="M1256.06 95.6002L1226.11 137.168L1219.2 137.36L1259.23 86.0002L1265.37 85.6162C1265.12 87.1522 1264.89 88.9442 1264.7 90.9922C1264.51 93.0402 1264.41 95.3762 1264.41 98.0002C1264.41 98.6402 1264.51 99.7282 1264.7 101.264C1264.89 102.8 1265.12 104.592 1265.37 106.64L1266.24 112.784C1266.36 113.488 1266.2 114.064 1265.76 114.512C1265.37 114.96 1264.83 115.184 1264.12 115.184C1261.95 115.184 1260.44 114.896 1259.61 114.32C1258.84 113.744 1258.4 112.88 1258.27 111.728L1256.06 95.6002Z" fill="white"/>
<path d="M1179.26 97.6163C1183.48 97.1683 1186.94 96.3363 1189.63 95.1203C1192.19 93.9683 1193.47 92.4963 1193.47 90.7043C1193.47 90.1283 1192.99 89.7443 1192.03 89.5523L1190.39 89.1683C1189.56 88.9763 1188.76 88.6883 1187.99 88.3043C1187.23 87.8563 1186.84 87.1203 1186.84 86.0963C1186.84 84.8163 1187.42 83.8243 1188.57 83.1203C1189.79 82.3523 1191.23 81.9683 1192.89 81.9683C1197.18 81.9683 1199.32 84.0483 1199.32 88.2083C1199.32 91.6003 1197.59 94.3843 1194.14 96.5603C1190.68 98.6723 1186.07 99.7283 1180.31 99.7283L1179.26 97.6163ZM1179.26 117.296C1183.61 116.784 1187.07 115.92 1189.63 114.704C1192.19 113.488 1193.47 112.048 1193.47 110.384C1193.47 109.936 1193.11 109.616 1192.41 109.424L1190.11 108.848C1189.27 108.656 1188.51 108.4 1187.8 108.08C1187.16 107.696 1186.84 106.992 1186.84 105.968C1186.84 104.688 1187.42 103.632 1188.57 102.8C1189.79 101.968 1191.23 101.552 1192.89 101.552C1197.18 101.552 1199.32 103.696 1199.32 107.984C1199.32 111.376 1197.63 114.128 1194.23 116.24C1190.84 118.288 1186.2 119.312 1180.31 119.312L1179.26 117.296ZM1179.26 137.168C1183.23 136.656 1186.59 135.824 1189.34 134.672C1192.09 133.456 1193.47 131.952 1193.47 130.16C1193.47 129.648 1193.11 129.296 1192.41 129.104L1190.11 128.624C1189.27 128.432 1188.51 128.144 1187.8 127.76C1187.16 127.376 1186.84 126.64 1186.84 125.552C1186.84 124.4 1187.42 123.408 1188.57 122.576C1189.79 121.744 1191.23 121.328 1192.89 121.328C1194.75 121.328 1196.28 121.84 1197.5 122.864C1198.71 123.824 1199.32 125.36 1199.32 127.472C1199.32 130.992 1197.59 133.808 1194.14 135.92C1190.75 138.032 1186.14 139.088 1180.31 139.088L1179.26 137.168Z" fill="white"/>
<path d="M1137.11 114.896C1137.11 116.432 1135.77 117.648 1133.08 118.544C1130.2 119.44 1127 119.888 1123.48 119.888C1122.58 119.888 1121.66 119.664 1120.7 119.216C1119.8 118.704 1119.35 118.128 1119.35 117.488C1119.35 116.08 1120.25 115.376 1122.04 115.376C1122.68 115.376 1123.48 115.344 1124.44 115.28C1125.46 115.152 1126.36 114.992 1127.13 114.8C1127.96 114.544 1128.38 114.288 1128.38 114.032C1128.38 113.52 1126.71 112.624 1123.38 111.344C1121.98 110.832 1120.98 110.384 1120.41 110C1119.9 109.552 1119.64 108.976 1119.64 108.272C1119.64 106.928 1121.18 106.256 1124.25 106.256C1128.22 106.256 1130.2 105.584 1130.2 104.24C1130.2 103.408 1129.21 102.48 1127.22 101.456C1125.24 100.368 1123.8 99.2481 1122.9 98.0961C1122.07 96.9441 1121.66 95.7921 1121.66 94.6401C1121.66 92.9761 1122.26 91.4401 1123.48 90.0321C1124.76 88.6241 1126.42 87.5041 1128.47 86.6721C1130.58 85.7761 1132.92 85.3281 1135.48 85.3281C1139.77 85.3281 1143.8 86.3201 1147.58 88.3041C1151.29 90.2881 1154.17 92.9761 1156.22 96.3681C1158.33 99.7601 1159.38 103.248 1159.38 106.832C1159.38 109.648 1158.71 112.368 1157.37 114.992C1156.02 117.616 1153.91 119.984 1151.03 122.096L1142.39 128.528C1134.01 134.672 1129.72 140.88 1129.53 147.152L1122.04 153.008C1122.3 147.696 1122.97 143.696 1124.06 141.008C1125.08 138.384 1126.55 136.016 1128.47 133.904C1130.46 131.792 1133.5 129.36 1137.59 126.608C1141.69 123.856 1144.98 121.328 1147.48 119.024C1149.91 116.784 1151.64 114.736 1152.66 112.88C1153.75 110.96 1154.3 109.104 1154.3 107.312C1154.3 104.304 1153.43 101.488 1151.7 98.8641C1150.04 96.2401 1147.83 94.1281 1145.08 92.5281C1142.33 90.8641 1139.32 90.0321 1136.06 90.0321C1133.11 90.0321 1130.94 90.4801 1129.53 91.3761C1128.18 92.2081 1127.51 93.1361 1127.51 94.1601C1127.51 94.4161 1127.67 94.7041 1127.99 95.0241C1128.31 95.3441 1128.7 95.6961 1129.14 96.0801C1129.66 96.4641 1130.58 97.0401 1131.93 97.8081C1133.27 98.5121 1135.13 99.5041 1137.5 100.784C1139.61 101.936 1140.66 103.344 1140.66 105.008C1140.66 105.968 1140.28 106.704 1139.51 107.216C1138.74 107.728 1137.82 108.24 1136.73 108.752C1136.28 108.944 1135.83 109.136 1135.38 109.328C1134.94 109.456 1134.49 109.584 1134.04 109.712C1133.59 109.84 1133.21 110 1132.89 110.192C1132.57 110.32 1132.41 110.448 1132.41 110.576C1132.41 110.704 1132.54 110.864 1132.79 111.056C1133.11 111.184 1133.37 111.312 1133.56 111.44C1135.93 112.656 1137.11 113.808 1137.11 114.896Z" fill="white"/>
<path d="M1065.55 62H1079.76V158H1065.55V62ZM1054.99 62H1058.54V158H1054.99V62ZM1042.22 103.472C1040.56 103.472 1039.12 102.896 1037.9 101.744C1036.69 100.528 1036.08 99.088 1036.08 97.424C1036.08 95.76 1036.69 94.32 1037.9 93.104C1039.12 91.888 1040.56 91.28 1042.22 91.28C1043.89 91.28 1045.29 91.888 1046.45 93.104C1047.66 94.32 1048.27 95.76 1048.27 97.424C1048.27 99.088 1047.66 100.528 1046.45 101.744C1045.29 102.896 1043.89 103.472 1042.22 103.472ZM1042.22 128.72C1040.56 128.72 1039.12 128.144 1037.9 126.992C1036.69 125.776 1036.08 124.336 1036.08 122.672C1036.08 121.008 1036.69 119.568 1037.9 118.352C1039.12 117.136 1040.56 116.528 1042.22 116.528C1043.89 116.528 1045.29 117.136 1046.45 118.352C1047.66 119.568 1048.27 121.008 1048.27 122.672C1048.27 124.336 1047.66 125.776 1046.45 126.992C1045.29 128.144 1043.89 128.72 1042.22 128.72Z" fill="white"/>
<path d="M998.424 91.8561L996.504 103.376H994.2C993.816 97.8081 991.48 95.0241 987.192 95.0241C984.568 95.0241 982.168 95.9521 979.992 97.8081C977.88 99.6001 976.184 101.936 974.904 104.816C973.624 107.696 972.984 110.704 972.984 113.84C972.984 116.784 973.624 119.248 974.904 121.232C976.184 123.216 977.976 124.208 980.28 124.208C982.392 124.208 984.472 123.6 986.52 122.384C988.632 121.168 990.616 119.472 992.472 117.296L994.2 119.12C990.168 124.752 985.208 127.568 979.32 127.568C976.76 127.568 974.456 126.96 972.408 125.744C970.424 124.464 968.824 122.736 967.608 120.56C966.456 118.384 965.88 115.92 965.88 113.168C965.88 110.544 966.456 107.984 967.608 105.488C968.76 102.928 970.296 100.624 972.216 98.5761C974.2 96.4641 976.44 94.8001 978.936 93.5841C981.496 92.3041 984.152 91.6641 986.904 91.6641C987.672 91.6641 988.472 91.6961 989.304 91.7601C990.2 91.8241 991.096 91.9841 991.992 92.2401C993.592 92.6881 994.488 92.9121 994.68 92.9121C995.448 92.9121 996.024 92.5601 996.408 91.8561H998.424ZM924.984 126.8V124.592C926.264 124.592 927.192 124.272 927.768 123.632C928.408 122.992 928.888 122.032 929.208 120.752L935.256 98.9601C935.512 98.1281 935.64 97.3281 935.64 96.5601C935.64 96.1121 935.448 95.7921 935.064 95.6001C934.808 95.4721 934.424 95.3441 933.912 95.2161C933.464 95.0881 932.792 94.9921 931.896 94.9281V92.7201H944.76C956.088 92.7201 961.752 97.4241 961.752 106.832C961.752 110.672 960.728 114.096 958.68 117.104C956.632 120.112 953.848 122.48 950.328 124.208C946.808 125.936 942.808 126.8 938.328 126.8H924.984ZM935.736 121.232C935.544 122 935.448 122.512 935.448 122.768C935.448 123.472 936.28 123.824 937.944 123.824C943.512 123.824 947.672 122.192 950.424 118.928C953.176 115.6 954.552 111.312 954.552 106.064C954.552 99.1521 951.576 95.6961 945.624 95.6961C944.984 95.6961 944.344 95.7921 943.704 95.9841C943.128 96.1121 942.68 96.2401 942.36 96.3681L935.736 121.232ZM960.984 119.984C961.752 119.984 962.488 120.304 963.192 120.944C963.896 121.584 964.248 122.384 964.248 123.344C964.248 124.368 963.928 125.2 963.288 125.84C962.648 126.48 961.88 126.8 960.984 126.8C959.96 126.8 959.128 126.48 958.488 125.84C957.848 125.2 957.528 124.368 957.528 123.344C957.528 122.384 957.88 121.584 958.584 120.944C959.352 120.304 960.152 119.984 960.984 119.984ZM998.136 120.368C999.224 120.368 1000.06 120.688 1000.63 121.328C1001.21 121.904 1001.5 122.704 1001.5 123.728C1001.5 124.624 1001.18 125.392 1000.54 126.032C999.96 126.672 999.16 126.992 998.136 126.992C997.24 126.992 996.472 126.672 995.832 126.032C995.192 125.392 994.872 124.624 994.872 123.728C994.872 122.768 995.192 121.968 995.832 121.328C996.472 120.688 997.24 120.368 998.136 120.368Z" fill="white"/>
<path d="M819.669 153.872C819.221 153.808 818.037 153.712 816.117 153.584C814.261 153.392 812.341 153.296 810.357 153.296C808.373 153.296 806.741 153.36 805.461 153.488C804.245 153.552 802.805 153.744 801.141 154.064V136.976C802.805 136.656 804.405 136.4 805.941 136.208C807.477 136.016 808.949 135.92 810.357 135.92C812.981 135.92 815.253 136.112 817.173 136.496V89.8398C821.205 94.8958 825.141 99.4718 828.981 103.568C832.885 107.6 836.693 111.216 840.405 114.416C845.333 118.576 850.133 122.192 854.805 125.264C859.477 128.336 864.469 130.96 869.781 133.136C875.157 135.312 881.205 137.2 887.925 138.8V107.792C886.389 107.536 885.141 107.376 884.181 107.312C883.285 107.248 882.197 107.216 880.917 107.216C878.613 107.216 876.789 107.312 875.445 107.504C874.101 107.632 872.917 107.792 871.893 107.984V90.8958C873.685 90.5758 875.285 90.3198 876.693 90.1278C878.101 89.9358 879.509 89.8398 880.917 89.8398C882.709 89.8398 884.405 89.9678 886.005 90.2238C887.605 90.4158 889.077 90.6398 890.421 90.8958V153.872C879.477 151.696 869.749 148.784 861.237 145.136C852.725 141.488 845.077 137.008 838.293 131.696C831.573 126.32 825.365 120.048 819.669 112.88V153.872Z" fill="white"/>
<path d="M755.48 158H752.984V84.9442C754.264 84.6882 755.704 84.4642 757.304 84.2722C758.968 84.0162 760.696 83.8882 762.488 83.8882C763.96 83.8882 765.4 83.9842 766.808 84.1762C768.28 84.3682 769.848 84.6242 771.512 84.9442V102.032C770.552 101.84 769.4 101.68 768.056 101.552C766.712 101.36 764.856 101.264 762.488 101.264C761.208 101.264 760.088 101.296 759.128 101.36C758.232 101.424 757.016 101.584 755.48 101.84V158ZM750.2 121.424C748.664 121.168 747.32 121.008 746.168 120.944C745.08 120.88 743.32 120.848 740.888 120.848C738.968 120.848 737.304 120.912 735.896 121.04C734.552 121.168 733.144 121.36 731.672 121.616V104.528C733.336 104.208 734.936 103.952 736.472 103.76C738.008 103.568 739.48 103.472 740.888 103.472C742.424 103.472 743.928 103.568 745.4 103.76C746.872 103.952 748.472 104.208 750.2 104.528V121.424ZM791.576 121.424C791.32 121.36 790.616 121.296 789.464 121.232C788.312 121.168 787.064 121.104 785.72 121.04C784.376 120.912 783.224 120.848 782.264 120.848C780.6 120.848 779.096 120.912 777.752 121.04C776.472 121.104 774.904 121.296 773.048 121.616V104.528C774.904 104.208 776.536 103.952 777.944 103.76C779.416 103.568 780.856 103.472 782.264 103.472C784.12 103.472 785.784 103.568 787.256 103.76C788.792 103.952 790.232 104.208 791.576 104.528V121.424ZM750.2 142.544C749.816 142.48 748.664 142.384 746.744 142.256C744.824 142.064 742.872 141.968 740.888 141.968C738.904 141.968 737.272 142.032 735.992 142.16C734.776 142.224 733.336 142.416 731.672 142.736V125.648C732.376 125.52 733.592 125.328 735.32 125.072C737.048 124.752 738.904 124.592 740.888 124.592C742.68 124.592 744.216 124.688 745.496 124.88C746.776 125.008 748.344 125.264 750.2 125.648V142.544Z" fill="white"/>
<path d="M680.028 153.584V139.856L675.516 141.008V131.408L680.028 130.16V111.344H683.004V129.392L689.436 127.856V109.136H685.5L690.876 101.648L696.252 109.136H692.412V127.088L697.116 126.032V135.536L692.412 136.88V150.608L697.116 149.456V159.344L692.412 160.496V178.544H689.436V161.264L683.004 162.992V181.712H680.028V163.664L675.516 164.816V154.928L680.028 153.584ZM689.436 151.28V137.456L683.004 139.088V152.816L689.436 151.28Z" fill="white"/>
<path d="M649.803 98.96V136.4C652.171 134.032 654.859 132.848 657.867 132.848C659.915 132.848 661.771 133.552 663.435 134.96C665.099 136.304 665.931 138.288 665.931 140.912C665.931 142.96 665.323 144.848 664.107 146.576C662.891 148.304 661.259 150.032 659.211 151.76L652.587 157.424C652.075 157.872 651.595 158.288 651.147 158.672C650.699 159.12 650.251 159.568 649.803 160.016V162.896H653.643L648.267 170.384L642.891 162.896H646.827V98.96H649.803ZM649.803 156.848C651.467 155.056 652.875 153.424 654.027 151.952C655.179 150.416 656.075 149.072 656.715 147.92C657.419 146.704 657.931 145.584 658.251 144.56C658.635 143.536 658.827 142.576 658.827 141.68C658.827 139.888 658.411 138.608 657.579 137.84C656.747 137.008 655.851 136.592 654.891 136.592C653.867 136.592 652.843 136.976 651.819 137.744C650.859 138.448 650.187 139.44 649.803 140.72V156.848Z" fill="white"/>
<path d="M573.189 170.48L582.405 137.84C581.061 139.056 579.525 139.92 577.797 140.432C576.133 140.944 574.469 141.2 572.805 141.2C570.053 141.2 567.749 140.464 565.893 138.992C564.037 137.52 563.109 135.408 563.109 132.656C563.109 130.928 563.749 129.424 565.029 128.144C566.309 126.864 567.941 126.224 569.925 126.224C571.781 126.224 573.285 126.832 574.437 128.048C575.653 129.2 576.261 130.768 576.261 132.752C576.261 134.16 575.941 135.408 575.301 136.496C575.301 136.88 575.685 137.072 576.453 137.072C579.077 137.072 581.573 135.6 583.941 132.656L588.933 114.416C587.589 115.632 586.053 116.496 584.325 117.008C582.661 117.52 580.997 117.776 579.333 117.776C576.581 117.776 574.277 117.04 572.421 115.568C570.565 114.096 569.637 111.984 569.637 109.232C569.637 107.376 570.277 105.84 571.557 104.624C572.837 103.408 574.469 102.8 576.453 102.8C578.373 102.8 579.909 103.408 581.061 104.624C582.213 105.84 582.789 107.408 582.789 109.328C582.789 109.968 582.693 110.64 582.501 111.344C582.309 111.984 582.085 112.56 581.829 113.072C581.829 113.456 582.213 113.648 582.981 113.648C585.605 113.648 588.069 112.208 590.373 109.328L595.749 90.0321C594.405 91.2481 592.869 92.1121 591.141 92.6241C589.477 93.1361 587.813 93.3921 586.149 93.3921C583.397 93.3921 581.093 92.6561 579.237 91.1841C577.381 89.7121 576.453 87.6001 576.453 84.8481C576.453 82.9921 577.093 81.4561 578.373 80.2401C579.653 79.0241 581.285 78.4161 583.269 78.4161C585.189 78.4161 586.725 79.0241 587.877 80.2401C589.029 81.4561 589.605 83.0241 589.605 84.9441C589.605 85.5841 589.509 86.2561 589.317 86.9601C589.125 87.6001 588.901 88.1761 588.645 88.6881C588.645 89.0721 589.029 89.2641 589.797 89.2641C592.357 89.2641 594.821 87.8241 597.189 84.9441L602.469 65.8401C601.125 67.0561 599.589 67.9201 597.861 68.4321C596.197 68.9441 594.533 69.2001 592.869 69.2001C590.117 69.2001 587.813 68.4641 585.957 66.9921C584.101 65.5201 583.173 63.4081 583.173 60.6561C583.173 58.9281 583.813 57.4241 585.093 56.1441C586.373 54.8641 588.005 54.2241 589.989 54.2241C591.845 54.2241 593.349 54.8321 594.501 56.0481C595.717 57.2001 596.325 58.7681 596.325 60.7521C596.325 62.1601 596.005 63.4081 595.365 64.4961C595.365 64.8801 595.749 65.0721 596.517 65.0721C600.037 65.0721 603.397 62.3201 606.597 56.8161H608.325L576.645 170.48H573.189Z" fill="white"/>
<path d="M502.142 109.904C498.366 108.176 496.478 105.52 496.478 101.936C496.478 99.3123 497.566 97.1043 499.742 95.3123C501.982 93.4563 504.574 92.5283 507.518 92.5283C510.59 92.5283 513.15 93.2963 515.198 94.8323C517.246 96.3043 518.27 98.3843 518.27 101.072C518.27 102.736 517.822 104.048 516.926 105.008C516.03 105.968 514.494 106.992 512.318 108.08C514.302 108.848 515.966 109.968 517.31 111.44C518.718 112.912 519.422 114.736 519.422 116.912C519.422 118.96 518.846 120.784 517.694 122.384C516.606 123.92 515.134 125.136 513.278 126.032C511.422 126.928 509.406 127.376 507.23 127.376C503.902 127.376 501.086 126.48 498.782 124.688C496.542 122.896 495.422 120.624 495.422 117.872C495.422 114.352 497.662 111.696 502.142 109.904ZM501.278 100.304C501.278 101.968 502.014 103.472 503.486 104.816C504.958 106.096 506.686 106.736 508.67 106.736C509.758 106.736 510.878 106.16 512.03 105.008C513.182 103.792 513.758 102.48 513.758 101.072C513.758 99.1523 513.118 97.7123 511.838 96.7523C510.622 95.7283 509.182 95.2163 507.518 95.2163C505.726 95.2163 504.222 95.6963 503.006 96.6563C501.854 97.6163 501.278 98.8323 501.278 100.304ZM546.398 110.576C545.182 112.176 543.934 113.552 542.654 114.704C541.374 115.792 540.126 116.336 538.91 116.336C537.694 116.336 536.766 115.984 536.126 115.28C535.55 114.512 535.262 113.52 535.262 112.304C535.262 110.384 535.87 108.496 537.086 106.64C538.302 104.72 539.806 103.152 541.598 101.936C543.454 100.72 545.246 100.112 546.974 100.112C548.126 100.112 548.894 100.496 549.278 101.264C549.342 101.136 549.374 101.008 549.374 100.88C549.438 100.688 549.502 100.464 549.566 100.208C549.694 99.8883 549.982 99.7283 550.43 99.7283H552.254C552.766 99.7283 553.022 99.9523 553.022 100.4C553.022 100.848 552.766 101.776 552.254 103.184L548.702 113.552C549.15 113.232 549.726 112.688 550.43 111.92C551.198 111.152 551.838 110.448 552.35 109.808L553.502 110.768C552.99 111.408 552.318 112.176 551.486 113.072C550.654 113.968 549.79 114.736 548.894 115.376C548.062 116.016 547.326 116.336 546.686 116.336C546.366 116.336 546.014 116.24 545.63 116.048C545.246 115.792 545.054 115.376 545.054 114.8C545.054 114.352 545.182 113.84 545.438 113.264L546.398 110.576ZM524.606 104.144C524.862 103.504 524.99 103.152 524.99 103.088C524.99 102.96 524.894 102.896 524.702 102.896C524.446 102.896 523.998 103.216 523.358 103.856C522.718 104.496 522.142 105.168 521.63 105.872L520.478 104.912C521.438 103.44 522.462 102.288 523.55 101.456C524.702 100.56 525.79 100.112 526.814 100.112C527.39 100.112 527.838 100.304 528.158 100.688C528.478 101.072 528.638 101.52 528.638 102.032C528.638 102.288 528.606 102.576 528.542 102.896C528.478 103.216 528.35 103.6 528.158 104.048L525.278 111.344C525.022 111.92 524.894 112.496 524.894 113.072C524.894 113.904 525.246 114.32 525.95 114.32C527.038 114.32 528.126 113.776 529.214 112.688C530.366 111.536 531.326 110.224 532.094 108.752C532.926 107.216 533.342 105.936 533.342 104.912C532.574 103.76 532.19 102.8 532.19 102.032C532.19 101.648 532.318 101.2 532.574 100.688C532.83 100.176 533.31 99.9203 534.014 99.9203C534.526 99.9203 534.974 100.144 535.358 100.592C535.806 101.04 536.03 101.776 536.03 102.8C536.03 104.72 535.422 106.736 534.206 108.848C533.054 110.96 531.614 112.752 529.886 114.224C528.222 115.632 526.59 116.336 524.99 116.336C522.558 116.336 521.342 115.248 521.342 113.072C521.342 112.56 521.438 112.016 521.63 111.44C521.822 110.864 522.014 110.352 522.206 109.904L524.606 104.144ZM546.878 101.936C545.918 101.936 544.83 102.512 543.614 103.664C542.398 104.816 541.342 106.192 540.446 107.792C539.55 109.328 539.102 110.736 539.102 112.016C539.102 112.592 539.166 113.072 539.294 113.456C539.486 113.648 539.806 113.744 540.254 113.744C540.958 113.744 541.758 113.328 542.654 112.496C543.55 111.664 544.414 110.64 545.246 109.424C546.142 108.208 546.846 107.024 547.358 105.872C547.934 104.656 548.222 103.728 548.222 103.088C548.222 102.832 548.126 102.576 547.934 102.32C547.806 102.064 547.454 101.936 546.878 101.936ZM514.43 118.256C514.43 116.912 513.982 115.696 513.086 114.608C512.19 113.52 511.102 112.656 509.822 112.016C508.542 111.376 507.294 111.056 506.078 111.056C505.502 111.056 504.734 111.408 503.774 112.112C502.878 112.816 502.078 113.744 501.374 114.896C500.67 115.984 500.318 117.168 500.318 118.448C500.318 120.496 500.958 122.064 502.238 123.152C503.518 124.176 505.182 124.688 507.23 124.688C509.278 124.688 510.974 124.112 512.318 122.96C513.726 121.808 514.43 120.24 514.43 118.256Z" fill="white"/>
<path d="M442.6 85.6162C445.608 85.6162 448.456 86.2562 451.144 87.5362C453.896 88.7522 456.136 90.4482 457.864 92.6242C459.592 94.7362 460.456 97.1362 460.456 99.8242C460.456 102.192 459.656 104.24 458.056 105.968C456.456 107.632 454.44 108.464 452.008 108.464C449.832 108.464 448.04 107.856 446.632 106.64C445.224 105.36 444.52 103.632 444.52 101.456C444.52 99.7922 445 98.3842 445.96 97.2322C446.92 96.0802 448.072 95.1842 449.416 94.5442C450.12 94.2242 450.984 93.9682 452.008 93.7762C453.032 93.5202 453.544 93.2002 453.544 92.8162C453.544 91.7922 452.648 90.8322 450.856 89.9362C449.064 89.0402 447.144 88.5922 445.096 88.5922C442.472 88.5922 440.232 89.2002 438.376 90.4162C436.52 91.6322 435.112 93.7122 434.152 96.6562C433.256 99.6002 432.808 103.696 432.808 108.944V116.432C432.808 118.8 433.16 121.136 433.864 123.44C434.632 125.68 435.88 127.536 437.608 129.008C439.336 130.48 441.608 131.216 444.424 131.216C447.624 131.216 450.536 129.776 453.16 126.896C455.784 124.016 457.48 120.144 458.248 115.28H460.84C460.584 118.992 459.624 122.32 457.96 125.264C456.296 128.144 454.056 130.416 451.24 132.08C448.424 133.744 445.192 134.576 441.544 134.576C437.512 134.576 433.896 133.424 430.696 131.12C427.496 128.752 424.968 125.616 423.112 121.712C421.256 117.808 420.328 113.456 420.328 108.656C420.328 105.584 420.904 102.672 422.056 99.9202C423.272 97.1682 424.904 94.7362 426.952 92.6242C429 90.4482 431.368 88.7522 434.056 87.5362C436.744 86.2562 439.592 85.6162 442.6 85.6162Z" fill="white"/>
<path d="M370.464 87.3442H385.824L349.344 132.656H333.984L370.464 87.3442ZM343.968 93.6802C345.632 93.6802 347.072 94.2882 348.288 95.5042C349.504 96.7202 350.112 98.1602 350.112 99.8242C350.112 101.488 349.504 102.928 348.288 104.144C347.072 105.296 345.632 105.872 343.968 105.872C342.304 105.872 340.864 105.296 339.648 104.144C338.496 102.928 337.92 101.488 337.92 99.8242C337.92 98.1602 338.496 96.7202 339.648 95.5042C340.864 94.2882 342.304 93.6802 343.968 93.6802ZM375.84 114.128C377.504 114.128 378.944 114.736 380.16 115.952C381.376 117.168 381.984 118.608 381.984 120.272C381.984 121.936 381.376 123.376 380.16 124.592C378.944 125.744 377.504 126.32 375.84 126.32C374.176 126.32 372.736 125.744 371.52 124.592C370.368 123.376 369.792 121.936 369.792 120.272C369.792 118.608 370.368 117.168 371.52 115.952C372.736 114.736 374.176 114.128 375.84 114.128Z" fill="white"/>
<path d="M302.814 143.888L312.03 111.248C310.686 112.464 309.15 113.328 307.422 113.84C305.758 114.352 304.094 114.608 302.43 114.608C299.678 114.608 297.374 113.872 295.518 112.4C293.662 110.928 292.734 108.816 292.734 106.064C292.734 104.272 293.342 102.768 294.558 101.552C295.838 100.272 297.502 99.632 299.55 99.632C301.406 99.632 302.91 100.24 304.062 101.456C305.278 102.608 305.886 104.176 305.886 106.16C305.886 107.568 305.566 108.816 304.926 109.904C304.926 110.288 305.31 110.48 306.078 110.48C308.702 110.48 311.198 109.008 313.566 106.064L318.558 87.824C317.214 89.04 315.678 89.904 313.95 90.416C312.286 90.928 310.622 91.184 308.958 91.184C306.206 91.184 303.902 90.448 302.046 88.976C300.19 87.504 299.262 85.392 299.262 82.64C299.262 80.848 299.902 79.344 301.182 78.128C302.462 76.848 304.094 76.208 306.078 76.208C307.998 76.208 309.534 76.816 310.686 78.032C311.838 79.248 312.414 80.816 312.414 82.736C312.414 83.376 312.318 84.048 312.126 84.752C311.934 85.392 311.71 85.968 311.454 86.48C311.454 86.864 311.838 87.056 312.606 87.056C316.126 87.056 319.486 84.304 322.686 78.8H324.414L306.27 143.888H302.814Z" fill="white"/>
<path d="M268.033 132.176L277.249 99.5359C275.905 100.752 274.369 101.616 272.641 102.128C270.977 102.64 269.313 102.896 267.649 102.896C264.897 102.896 262.593 102.16 260.737 100.688C258.881 99.2159 257.953 97.1039 257.953 94.3519C257.953 92.5599 258.593 91.0559 259.873 89.8399C261.153 88.5599 262.785 87.9199 264.769 87.9199C266.625 87.9199 268.129 88.5279 269.281 89.7439C270.497 90.8959 271.105 92.4639 271.105 94.4479C271.105 95.8559 270.785 97.1039 270.145 98.1919C270.145 98.5759 270.529 98.7679 271.297 98.7679C274.817 98.7679 278.177 96.0159 281.377 90.5119H283.105L271.489 132.176H268.033Z" fill="white"/>
<path d="M157.078 146.192C167.702 139.28 175.318 133.584 179.926 129.104C182.998 126.096 185.718 122.672 188.086 118.832C190.454 114.928 192.31 110.832 193.654 106.544C195.062 102.256 195.766 98.0001 195.766 93.7761C195.766 90.0001 195.19 86.6721 194.038 83.7921C192.886 80.8481 191.222 78.5441 189.046 76.8801C186.87 75.2161 184.278 74.3841 181.27 74.3841C180.118 74.3841 178.902 74.5121 177.622 74.7681C176.406 75.0241 175.126 75.4081 173.782 75.9201C171.03 76.9441 168.918 78.2881 167.446 79.9521C165.974 81.5521 165.238 83.0881 165.238 84.5601C165.238 85.1361 165.494 85.5521 166.006 85.8081C166.518 86.0641 166.998 86.1921 167.446 86.1921C168.086 86.1921 168.886 86.0641 169.846 85.8081C170.294 85.6801 170.71 85.5841 171.094 85.5201C171.542 85.4561 171.99 85.4241 172.438 85.4241C174.87 85.4241 176.854 86.1601 178.39 87.6321C179.926 89.0401 180.694 90.9281 180.694 93.2961C180.694 95.6001 179.734 97.5841 177.814 99.2481C175.894 100.912 173.622 101.744 170.998 101.744C167.862 101.744 165.174 100.752 162.934 98.7681C160.694 96.7841 159.574 94.2241 159.574 91.0881C159.574 87.3121 160.63 83.9521 162.742 81.0081C164.854 78.0641 167.702 75.7601 171.286 74.0961C174.934 72.4321 178.966 71.6001 183.382 71.6001C188.246 71.6001 192.598 72.6561 196.438 74.7681C200.278 76.8801 203.318 79.7921 205.558 83.5041C207.862 87.1521 209.014 91.3121 209.014 95.9841C209.014 102.064 207.318 107.888 203.926 113.456C202.198 116.336 200.214 119.056 197.974 121.616C195.798 124.176 193.014 126.8 189.622 129.488C186.23 132.112 181.974 134.96 176.854 138.032C171.734 141.104 165.366 144.528 157.75 148.304L157.078 146.192ZM218.23 80.3361C219.702 80.3361 220.95 80.8481 221.974 81.8721C222.998 82.8961 223.51 84.1441 223.51 85.6161C223.51 87.0881 222.998 88.3361 221.974 89.3601C220.95 90.3201 219.702 90.8001 218.23 90.8001C216.758 90.8001 215.51 90.3201 214.486 89.3601C213.462 88.3361 212.95 87.0881 212.95 85.6161C212.95 84.1441 213.462 82.8961 214.486 81.8721C215.51 80.8481 216.758 80.3361 218.23 80.3361ZM218.23 101.456C219.702 101.456 220.95 101.968 221.974 102.992C222.998 104.016 223.51 105.264 223.51 106.736C223.51 108.208 222.998 109.456 221.974 110.48C220.95 111.44 219.702 111.92 218.23 111.92C216.758 111.92 215.51 111.44 214.486 110.48C213.462 109.456 212.95 108.208 212.95 106.736C212.95 105.264 213.462 104.016 214.486 102.992C215.51 101.968 216.758 101.456 218.23 101.456Z" fill="white"/>
<path d="M119.548 13.6161C118.268 12.9121 117.244 12.0161 116.476 10.9281C115.708 9.77608 115.324 8.46408 115.324 6.99208C115.324 4.94408 116.092 3.28008 117.628 2.00008C119.228 0.720078 121.628 0.0800781 124.828 0.0800781C127.516 0.0800781 129.692 0.592087 131.356 1.61609C133.02 2.57609 133.852 4.08009 133.852 6.12809C133.852 7.08809 133.468 8.11209 132.7 9.20009C131.996 10.2241 131.036 11.1201 129.82 11.8881C131.42 12.6561 132.636 13.5841 133.468 14.6721C134.364 15.6961 134.812 17.0721 134.812 18.8001C134.812 21.0401 133.852 22.9601 131.932 24.5601C130.012 26.0961 127.612 26.8641 124.732 26.8641C121.66 26.8641 119.228 26.2561 117.436 25.0401C115.644 23.7601 114.748 22.0321 114.748 19.8561C114.748 17.2961 116.348 15.2161 119.548 13.6161ZM127.612 10.9281C128.572 10.2241 129.244 9.48808 129.628 8.72009C130.012 7.88808 130.204 7.08808 130.204 6.32008C130.204 4.84808 129.628 3.76009 128.476 3.05608C127.388 2.35208 126.204 2.00008 124.924 2.00008C123.452 2.00008 122.332 2.32008 121.564 2.96008C120.796 3.53609 120.412 4.30408 120.412 5.26408C120.412 6.28809 120.924 7.24809 121.948 8.14408C123.036 9.04008 124.252 9.71208 125.596 10.1601L127.612 10.9281ZM121.66 14.7681C119.548 16.1761 118.492 17.8401 118.492 19.7601C118.492 21.3601 119.1 22.6401 120.316 23.6001C121.532 24.4961 122.972 24.9441 124.636 24.9441C125.788 24.9441 126.876 24.6241 127.9 23.9841C128.988 23.3441 129.532 22.3521 129.532 21.0081C129.532 19.5361 128.796 18.3841 127.324 17.5521C125.916 16.7201 124.028 15.7921 121.66 14.7681ZM114.172 81.1041C113.276 77.7121 112.54 74.3521 111.964 71.0241C111.388 67.6961 111.1 64.3041 111.1 60.8481C111.1 57.8401 111.292 55.0241 111.676 52.4001C112.124 49.7121 112.732 47.2481 113.5 45.0081C114.332 42.4481 115.42 40.0481 116.764 37.8081C118.108 35.5041 119.516 33.6161 120.988 32.1441C122.524 30.6721 123.868 29.9361 125.02 29.9361C126.556 29.9361 128.668 32.6561 131.356 38.0961C132.7 40.8481 133.692 43.8241 134.332 47.0241C134.972 50.2241 135.292 53.6481 135.292 57.2961C135.292 61.8401 134.684 66.3841 133.468 70.9281C132.252 75.4081 130.46 79.6321 128.092 83.6001C125.788 87.5681 123.004 91.0561 119.74 94.0641L123.1 110.192C124.06 110.064 124.86 109.968 125.5 109.904C126.14 109.84 126.62 109.808 126.94 109.808C130.844 109.808 134.332 110.928 137.404 113.168C140.476 115.344 142.908 118.224 144.7 121.808C146.556 125.392 147.484 129.328 147.484 133.616C147.484 138.544 146.204 142.992 143.644 146.96C141.148 150.864 137.372 153.744 132.316 155.6C132.636 156.688 133.564 161.232 135.1 169.232C135.484 171.152 135.772 172.656 135.964 173.744C136.156 174.896 136.284 175.888 136.348 176.72C136.412 177.552 136.444 178.512 136.444 179.6C136.444 182.8 135.644 185.648 134.044 188.144C132.508 190.704 130.396 192.688 127.708 194.096C125.084 195.504 122.14 196.208 118.876 196.208C115.548 196.208 112.604 195.568 110.044 194.288C107.484 193.072 105.468 191.344 103.996 189.104C102.524 186.928 101.788 184.4 101.788 181.52C101.788 178.448 102.62 175.888 104.284 173.84C106.012 171.792 108.444 170.768 111.58 170.768C114.268 170.768 116.444 171.728 118.108 173.648C119.836 175.632 120.7 177.968 120.7 180.656C120.7 182.96 119.9 184.976 118.3 186.704C116.7 188.432 114.62 189.296 112.06 189.296H111.1C112.764 191.792 115.388 193.04 118.972 193.04C123.388 193.04 126.844 191.6 129.34 188.72C131.836 185.84 133.084 182.16 133.084 177.68C133.084 176.592 132.956 175.12 132.7 173.264C132.444 171.472 131.996 169.296 131.356 166.736C130.716 164.176 130.204 162.064 129.82 160.4C129.5 158.736 129.276 157.552 129.148 156.848C126.972 157.488 124.412 157.808 121.468 157.808C115.964 157.808 110.588 156.208 105.34 153.008C100.22 149.808 96.1881 145.584 93.2441 140.336C90.3001 135.088 88.8281 129.424 88.8281 123.344C88.8281 117.584 90.1402 112.176 92.7642 107.12C95.3882 102.064 98.6201 97.4241 102.46 93.2001C106.364 88.9761 110.268 84.9441 114.172 81.1041ZM116.764 78.7041C118.236 77.9361 119.804 76.5281 121.468 74.4801C123.132 72.3681 124.732 69.9681 126.268 67.2801C127.804 64.5921 129.052 61.9041 130.012 59.2161C130.972 56.4641 131.452 54.0001 131.452 51.8241C131.452 49.5201 131.1 47.6961 130.396 46.3521C129.692 45.0081 128.476 44.3361 126.748 44.3361C125.212 44.3361 123.708 45.0401 122.236 46.4481C120.828 47.8561 119.548 49.7441 118.396 52.1121C117.308 54.4161 116.444 57.0081 115.804 59.8881C115.164 62.7681 114.844 65.7121 114.844 68.7201C114.844 70.7681 115.036 72.6241 115.42 74.2881C115.868 75.9521 116.316 77.4241 116.764 78.7041ZM122.236 121.616C120.508 122 118.876 122.832 117.34 124.112C115.804 125.328 114.556 126.832 113.596 128.624C112.7 130.352 112.252 132.208 112.252 134.192C112.252 135.792 112.668 137.456 113.5 139.184C114.332 140.848 115.356 142.192 116.572 143.216C117.404 143.984 118.236 144.56 119.068 144.944C120.028 145.392 120.508 145.808 120.508 146.192C120.508 146.384 120.188 146.576 119.548 146.768C117.116 146.192 114.908 145.104 112.924 143.504C111.004 141.904 109.468 139.984 108.316 137.744C107.228 135.44 106.684 133.008 106.684 130.448C106.684 127.696 107.228 125.04 108.316 122.48C109.468 119.92 111.036 117.616 113.02 115.568C115.068 113.52 117.372 111.984 119.932 110.96L117.148 96.4641C109.724 102.48 104.252 108.4 100.732 114.224C97.2761 119.984 95.5482 125.712 95.5482 131.408C95.5482 135.568 96.6361 139.44 98.8121 143.024C100.988 146.608 103.964 149.52 107.74 151.76C111.516 153.936 115.772 155.024 120.508 155.024C121.788 155.024 123.068 154.896 124.348 154.64C125.692 154.384 127.1 154.064 128.572 153.68L122.236 121.616ZM131.548 152.72C137.82 150.032 140.956 144.528 140.956 136.208C140.956 133.456 140.252 130.96 138.844 128.72C137.436 126.416 135.548 124.592 133.18 123.248C130.812 121.904 128.156 121.232 125.212 121.232L131.548 152.72Z" fill="white"/>
<path d="M45.9221 81.104C45.0261 77.712 44.2901 74.352 43.7141 71.024C43.1381 67.696 42.8501 64.304 42.8501 60.848C42.8501 57.84 43.0421 55.024 43.4261 52.4C43.8741 49.712 44.4822 47.248 45.2502 45.008C46.0822 42.448 47.1701 40.048 48.5141 37.808C49.8581 35.504 51.2661 33.616 52.7381 32.144C54.2741 30.672 55.6181 29.936 56.7701 29.936C58.3061 29.936 60.4181 32.656 63.1061 38.096C64.4501 40.848 65.4422 43.824 66.0822 47.024C66.7222 50.224 67.0421 53.648 67.0421 57.296C67.0421 61.84 66.4341 66.384 65.2181 70.928C64.0021 75.408 62.2102 79.632 59.8422 83.6C57.5382 87.568 54.7541 91.056 51.4901 94.064L54.8501 110.192C55.8101 110.064 56.6101 109.968 57.2501 109.904C57.8901 109.84 58.3701 109.808 58.6901 109.808C62.5941 109.808 66.0821 110.928 69.1541 113.168C72.2261 115.344 74.6581 118.224 76.4501 121.808C78.3061 125.392 79.2341 129.328 79.2341 133.616C79.2341 138.544 77.9542 142.992 75.3942 146.96C72.8982 150.864 69.1222 153.744 64.0662 155.6C64.3862 156.688 65.3142 161.232 66.8502 169.232C67.2342 171.152 67.5221 172.656 67.7141 173.744C67.9061 174.896 68.0341 175.888 68.0981 176.72C68.1621 177.552 68.1942 178.512 68.1942 179.6C68.1942 182.8 67.3941 185.648 65.7941 188.144C64.2581 190.704 62.1461 192.688 59.4581 194.096C56.8341 195.504 53.8901 196.208 50.6261 196.208C47.2981 196.208 44.3541 195.568 41.7941 194.288C39.2341 193.072 37.2181 191.344 35.7461 189.104C34.2741 186.928 33.5381 184.4 33.5381 181.52C33.5381 178.448 34.3701 175.888 36.0341 173.84C37.7621 171.792 40.1941 170.768 43.3301 170.768C46.0181 170.768 48.1942 171.728 49.8582 173.648C51.5862 175.632 52.4501 177.968 52.4501 180.656C52.4501 182.96 51.6501 184.976 50.0501 186.704C48.4501 188.432 46.3701 189.296 43.8102 189.296H42.8501C44.5141 191.792 47.1381 193.04 50.7221 193.04C55.1381 193.04 58.5941 191.6 61.0901 188.72C63.5861 185.84 64.8342 182.16 64.8342 177.68C64.8342 176.592 64.7061 175.12 64.4501 173.264C64.1941 171.472 63.7461 169.296 63.1061 166.736C62.4661 164.176 61.9541 162.064 61.5701 160.4C61.2501 158.736 61.0261 157.552 60.8981 156.848C58.7221 157.488 56.1621 157.808 53.2181 157.808C47.7141 157.808 42.3381 156.208 37.0901 153.008C31.9701 149.808 27.9381 145.584 24.9941 140.336C22.0501 135.088 20.5781 129.424 20.5781 123.344C20.5781 117.584 21.8901 112.176 24.5141 107.12C27.1381 102.064 30.3701 97.424 34.2101 93.2C38.1141 88.976 42.0182 84.944 45.9221 81.104ZM48.5141 78.704C49.9861 77.936 51.5541 76.528 53.2181 74.48C54.8821 72.368 56.4821 69.968 58.0181 67.28C59.5541 64.592 60.8021 61.904 61.7621 59.216C62.7221 56.464 63.2021 54 63.2021 51.824C63.2021 49.52 62.8501 47.696 62.1461 46.352C61.4421 45.008 60.2262 44.336 58.4982 44.336C56.9622 44.336 55.4581 45.04 53.9861 46.448C52.5781 47.856 51.2981 49.744 50.1461 52.112C49.0581 54.416 48.1941 57.008 47.5541 59.888C46.9141 62.768 46.5941 65.712 46.5941 68.72C46.5941 70.768 46.7861 72.624 47.1701 74.288C47.6181 75.952 48.0661 77.424 48.5141 78.704ZM53.9861 121.616C52.2581 122 50.6262 122.832 49.0901 124.112C47.5541 125.328 46.3061 126.832 45.3461 128.624C44.4501 130.352 44.0021 132.208 44.0021 134.192C44.0021 135.792 44.4182 137.456 45.2502 139.184C46.0822 140.848 47.1061 142.192 48.3221 143.216C49.1541 143.984 49.9861 144.56 50.8181 144.944C51.7781 145.392 52.2581 145.808 52.2581 146.192C52.2581 146.384 51.9381 146.576 51.2981 146.768C48.8661 146.192 46.6581 145.104 44.6741 143.504C42.7541 141.904 41.2181 139.984 40.0661 137.744C38.9781 135.44 38.4341 133.008 38.4341 130.448C38.4341 127.696 38.9781 125.04 40.0661 122.48C41.2181 119.92 42.7861 117.616 44.7701 115.568C46.8181 113.52 49.1221 111.984 51.6821 110.96L48.8981 96.464C41.4741 102.48 36.0021 108.4 32.4821 114.224C29.0261 119.984 27.2981 125.712 27.2981 131.408C27.2981 135.568 28.3861 139.44 30.5621 143.024C32.7381 146.608 35.7141 149.52 39.4901 151.76C43.2661 153.936 47.5221 155.024 52.2581 155.024C53.5381 155.024 54.8181 154.896 56.0981 154.64C57.4421 154.384 58.8501 154.064 60.3221 153.68L53.9861 121.616ZM63.2982 152.72C69.5702 150.032 72.7061 144.528 72.7061 136.208C72.7061 133.456 72.0021 130.96 70.5941 128.72C69.1861 126.416 67.2981 124.592 64.9301 123.248C62.5621 121.904 59.9062 121.232 56.9622 121.232L63.2982 152.72Z" fill="white"/>
</svg>
